# xmcd
#
# Track frame offsets: 
#        150
#        16581
#        29166
#        43794
#        61560
#        77735
#        88881
#        99521
#        112404
#        120418
#        134794
#        152182
#        163181
#        173831
#        184474
#        196358
#        205607
#        215199
#        226210
#        241405
#        254189
#        268575
#        277502
#        288718
#        300140
#        313037
#        324325
#
# Disc length: 4566 seconds
#
# Revision: 4
# Processed by: cddbd v1.5.2PL0 Copyright (c) Steve Scherf et al.
# Submitted via: ExactAudioCopy v1.0b3
#
DISCID=8c11d41b
DTITLE=Costello, Elvis and The Attractions - Almost Blue [Disc 2]
DYEAR=2004
DGENRE=Country
TTITLE0=Stranger In The House
TTITLE1=We Oughta Be Ashamed
TTITLE2=Radio Sweetheart [Live]
TTITLE3=Stranger In The House [Live]
TTITLE4=Psycho [Live]
TTITLE5=If I Could Put Them All Together (I'd Have You) [Live]
TTITLE6=Motel Matches [Live]
TTITLE7=He'll Have To Go [Live]
TTITLE8=Girls Talk [Live]
TTITLE9=Too Far Gone ["Lost Session"]
TTITLE10=He's Got You ["Lost Session"]
TTITLE11=Honky Tonk Girl
TTITLE12=That's Why I'm Walking
TTITLE13=Wondering
TTITLE14=Darling, You Know I Wouldn't Lie
TTITLE15=My Shoes Keep Walking Back To You
TTITLE16=Blues Keep Calling
TTITLE17=Tears Before Bedtime
TTITLE18=Psycho
TTITLE19=Cry, Cry, Cry
TTITLE20=I'll Take Care Of You
TTITLE21=Your Angel Steps Out Of Heaven
TTITLE22=Brand New Heartache [Live]
TTITLE23=There Won't Be Anymore [Live]
TTITLE24=Sittin' And Thinkin' [Live]
TTITLE25=Honey Hush [Live]
TTITLE26=I'm Your Toy [Live]
EXTD=
EXTT0=
EXTT1=
EXTT2=
EXTT3=
EXTT4=
EXTT5=
EXTT6=
EXTT7=
EXTT8=
EXTT9=
EXTT10=
EXTT11=
EXTT12=
EXTT13=
EXTT14=
EXTT15=
EXTT16=
EXTT17=
EXTT18=
EXTT19=
EXTT20=
EXTT21=
EXTT22=
EXTT23=
EXTT24=
EXTT25=
EXTT26=
PLAYORDER=
